<svg width="144" height="59" viewBox="0 0 144 59" fill="none" xmlns="http://www.w3.org/2000/svg">
<g id="Elements" clip-path="url(#clip0_156_37)">
<path id="Vector" d="M0.0844348 24.8491C8.34243 36.2469 43.9122 47.0636 67.6847 45.9451C93.4128 44.7422 107.326 39.4285 134.374 20.2655C134.291 22.3116 134.151 23.9211 134.173 25.5222C134.199 27.2647 134.24 29.0349 134.563 30.7346C134.658 31.2662 135.738 31.9676 136.333 31.9428C136.906 31.9117 137.82 31.109 137.918 30.5226C138.828 25.4848 139.623 20.4268 140.365 15.358C140.613 13.6684 139.821 12.5905 138.002 12.4679C131.31 12.0251 124.613 11.492 117.905 11.1842C116.327 11.1099 114.704 11.8055 112.669 12.2393C115.019 16.1374 118.479 15.0332 121.209 15.7046C124.089 16.4203 127.1 16.615 130.708 17.1401C123.5 24.1131 115.869 29.0586 107.517 32.8023C76.8344 46.5592 46.1798 45.1968 15.6813 32.1151C11.7115 30.4153 7.93376 28.2546 4.04871 26.3467C3.00223 25.8324 1.85759 25.5082 0.0942893 24.8473L0.0844348 24.8491Z" fill="white"/>
</g>
<defs>
<clipPath id="clip0_156_37">
<rect width="34" height="140" fill="white" transform="matrix(-0.175461 -0.984486 -0.984486 0.175461 143.841 33.6621)"/>
</clipPath>
</defs>
</svg>
