<svg width="42" height="42" viewBox="0 0 42 42" fill="none" xmlns="http://www.w3.org/2000/svg">
<g id="date_range" clip-path="url(#clip0_18_849)">
<path id="Vector" d="M12.25 19.25H15.75V22.75H12.25V19.25ZM36.75 10.5V35C36.75 36.925 35.175 38.5 33.25 38.5H8.75C6.8075 38.5 5.25 36.925 5.25 35L5.2675 10.5C5.2675 8.575 6.8075 7 8.75 7H10.5V3.5H14V7H28V3.5H31.5V7H33.25C35.175 7 36.75 8.575 36.75 10.5ZM8.75 14H33.25V10.5H8.75V14ZM33.25 35V17.5H8.75V35H33.25ZM26.25 22.75H29.75V19.25H26.25V22.75ZM19.25 22.75H22.75V19.25H19.25V22.75Z" fill="#10620D"/>
</g>
<defs>
<clipPath id="clip0_18_849">
<rect width="42" height="42" fill="white"/>
</clipPath>
</defs>
</svg>
