<svg width="94" height="110" viewBox="0 0 94 110" fill="none" xmlns="http://www.w3.org/2000/svg">
<g clip-path="url(#clip0_281_222)">
<path d="M59.9078 101.754C60.5463 101.697 60.8292 101.754 61.0151 101.649C75.8385 92.7132 85.7881 80.0882 89.6516 63.0198C90.6296 58.6818 90.4598 54.2221 89.3606 49.8516C86.9924 40.4214 79.1928 33.9346 69.5341 33.367C64.531 33.0751 59.7058 33.586 55.3089 36.351C54.9613 38.6943 54.7673 41.0215 54.25 43.2837C53.4337 46.8434 51.5586 49.7543 48.2932 51.5868C45.8361 52.9653 43.476 53.0058 42.1343 51.6274C40.4451 49.8922 40.4693 47.6704 41.4877 45.8217C42.9021 43.2351 44.7126 40.835 46.5878 38.5402C47.8002 37.0564 49.4248 35.905 50.8392 34.6319C49.4733 25.4937 40.8492 21.5691 30.4631 25.3964C30.1236 26.6775 29.8408 28.0722 29.38 29.402C27.7231 34.186 24.7892 37.8672 19.8992 39.57C18.0645 40.2106 16.0277 40.4376 14.4354 38.7835C13.2069 37.5024 13.215 35.1995 14.5243 32.9454C16.6096 29.3695 19.7457 26.8559 23.1807 24.6828C24.377 23.9287 25.6217 23.2557 26.7936 22.5746C25.2014 8.36039 12.4956 -1.67794 0 3.9899C0.121238 2.95202 -0.0323302 2.06008 0.347549 1.56546C0.767842 1.02219 1.63267 0.673526 2.35202 0.535681C9.18177 -0.737355 15.567 0.0491705 20.853 5.06023C24.7892 8.79825 27.5049 13.3471 29.2507 18.4879C29.5013 19.2177 29.768 19.9474 30.0428 20.6691C30.0832 20.7745 30.2206 20.8475 30.4954 21.107C31.1986 21.0421 32.0877 20.9934 32.9606 20.8556C43.7751 19.1528 49.4409 22.08 54.4844 32.2075C55.4948 31.8832 56.5536 31.5507 57.6124 31.1939C63.8359 29.0857 70.0837 28.9479 76.3316 31.0074C86.6126 34.3887 93.2483 43.2675 93.9192 54.441C94.2829 60.5224 93.3049 66.3849 91.1064 72.0365C85.7639 85.7318 77.0105 96.508 63.9733 103.554C63.2863 103.927 62.6074 104.308 61.9365 104.698C61.8476 104.754 61.8072 104.9 61.492 105.444C64.2239 106.092 66.8265 105.833 69.4129 105.727C71.9508 105.622 74.4887 105.411 77.2368 105.233C77.0024 107.349 75.8951 108.184 74.5049 108.638C72.9046 109.157 71.2638 109.798 69.623 109.855C65.2181 110.017 60.7969 110.106 56.4081 109.822C52.9164 109.603 51.9546 107.714 53.5226 104.868C56.8607 98.8432 60.2392 92.8348 63.642 86.8507C64.1754 85.9101 64.9352 85.1074 65.8 83.9641C67.3357 85.7318 66.6567 87.0291 66.0991 88.2697C64.1188 92.6483 62.0982 97.0107 59.924 101.754H59.9078ZM16.9168 36.3185C22.4776 35.5644 25.9773 31.9967 26.1794 26.9694C22.4371 29.4587 18.8647 31.6723 16.9168 36.3185ZM44.2277 48.9191C49.0045 47.8245 51.2353 44.5649 50.7422 39.6106C47.6708 42.1647 44.9713 44.6378 44.2277 48.9191Z" fill="#0A3D08"/>
</g>
<defs>
<clipPath id="clip0_281_222">
<rect width="94" height="110" fill="white"/>
</clipPath>
</defs>
</svg>
