<svg width="40" height="38" viewBox="0 0 40 38" fill="none" xmlns="http://www.w3.org/2000/svg">
<g id="Group">
<g id="Group_2">
<path id="Vector" d="M39.25 18.9825L34.98 14.1L35.575 7.6425L29.2575 6.2075L25.95 0.625L20 3.18L14.05 0.625L10.7425 6.2075L4.425 7.625L5.02 14.1L0.75 18.9825L5.02 23.865L4.425 30.34L10.7425 31.775L14.05 37.375L20 34.8025L25.95 37.3575L29.2575 31.775L35.575 30.34L34.98 23.8825L39.25 18.9825ZM32.3375 21.5725L31.3575 22.71L31.4975 24.1975L31.8125 27.61L28.4875 28.3625L27.0175 28.695L26.2475 29.99L24.515 32.93L21.4 31.5825L20 30.9875L18.6175 31.5825L15.5025 32.93L13.77 30.0075L13 28.7125L11.53 28.38L8.205 27.6275L8.52 24.1975L8.66 22.71L7.68 21.5725L5.4225 19L7.68 16.41L8.66 15.2725L8.5025 13.7675L8.1875 10.3725L11.5125 9.62L12.9825 9.2875L13.7525 7.9925L15.485 5.0525L18.6 6.4L20 6.995L21.3825 6.4L24.4975 5.0525L26.23 7.9925L27 9.2875L28.47 9.62L31.795 10.3725L31.48 13.785L31.34 15.2725L32.32 16.41L34.5775 18.9825L32.3375 21.5725Z" fill="#10620D"/>
<path id="Vector_2" d="M16.6575 22.0625L12.5975 17.985L10.0075 20.5925L16.6575 27.26L29.5025 14.38L26.9125 11.7725L16.6575 22.0625Z" fill="#10620D"/>
</g>
</g>
</svg>
