<svg width="32" height="32" viewBox="0 0 32 32" fill="none" xmlns="http://www.w3.org/2000/svg">
<g id="info" clip-path="url(#clip0_34_980)">
<path id="Vector" d="M14.6667 9.33329H17.3333V12H14.6667V9.33329ZM14.6667 14.6666H17.3333V22.6666H14.6667V14.6666ZM16 2.66663C8.63999 2.66663 2.66666 8.63996 2.66666 16C2.66666 23.36 8.63999 29.3333 16 29.3333C23.36 29.3333 29.3333 23.36 29.3333 16C29.3333 8.63996 23.36 2.66663 16 2.66663ZM16 26.6666C10.12 26.6666 5.33332 21.88 5.33332 16C5.33332 10.12 10.12 5.33329 16 5.33329C21.88 5.33329 26.6667 10.12 26.6667 16C26.6667 21.88 21.88 26.6666 16 26.6666Z" fill="#10620D"/>
</g>
<defs>
<clipPath id="clip0_34_980">
<rect width="32" height="32" fill="white"/>
</clipPath>
</defs>
</svg>
