<svg width="40" height="40" viewBox="0 0 40 40" fill="none" xmlns="http://www.w3.org/2000/svg">
<path d="M39.06 20.03C39.06 9.52002 30.54 1 20.03 1C9.52002 1 1 9.52002 1 20.03C1 30.54 9.52002 39.06 20.03 39.06C30.54 39.06 39.06 30.54 39.06 20.03Z" stroke="#F7FBFF" stroke-width="1.5" stroke-miterlimit="10"/>
<path d="M15.34 15.79H11.4V28.51H15.34V15.79Z" fill="#F7FBFF"/>
<path d="M13.35 14.1299C14.64 14.1299 15.68 13.0799 15.68 11.7799C15.68 10.4799 14.64 9.42993 13.35 9.42993C12.06 9.42993 11.02 10.4799 11.02 11.7799C11.02 13.0799 12.06 14.1299 13.35 14.1299Z" fill="#F7FBFF"/>
<path d="M21.64 21.8399C21.64 20.0499 22.46 18.9899 24.04 18.9899C25.49 18.9899 26.18 20.0099 26.18 21.8399V28.5199H30.1V20.4599C30.1 17.0499 28.17 15.3999 25.47 15.3999C22.77 15.3999 21.64 17.4999 21.64 17.4999V15.7899H17.86V28.5099H21.64V21.8299V21.8399Z" fill="#F7FBFF"/>
</svg>
