<svg width="20" height="20" viewBox="0 0 20 20" fill="none" xmlns="http://www.w3.org/2000/svg">
<g id="Frame 706">
<g id="Group">
<path id="Vector" d="M4.34001 6.79004H0.400009V19.51H4.34001V6.79004Z" fill="#F7FBFF"/>
<path id="Vector_2" d="M2.35 5.12994C3.64 5.12994 4.68 4.07993 4.68 2.77993C4.68 1.47993 3.64 0.429932 2.35 0.429932C1.06 0.429932 0.0200043 1.47993 0.0200043 2.77993C0.0200043 4.07993 1.06 5.12994 2.35 5.12994Z" fill="#F7FBFF"/>
</g>
<path id="Vector_3" d="M10.64 12.8399C10.64 11.0499 11.46 9.98991 13.04 9.98991C14.49 9.98991 15.18 11.0099 15.18 12.8399V19.5199H19.1V11.4599C19.1 8.0499 17.17 6.3999 14.47 6.3999C11.77 6.3999 10.64 8.4999 10.64 8.4999V6.7899H6.86V19.5099H10.64V12.8299V12.8399Z" fill="#F7FBFF"/>
</g>
</svg>
