<svg width="139" height="36" viewBox="0 0 139 36" fill="none" xmlns="http://www.w3.org/2000/svg">
<path d="M25.3579 15.2005C22.8831 19.2182 24.1379 24.4979 28.1556 26.9726C30.1718 28.2145 32.4925 28.5173 34.621 28.0114C36.7495 27.5055 38.6858 26.1911 39.9277 24.1749C43.0824 19.0533 40.8013 6.44236 40.8013 6.44236C40.8013 6.44236 28.5125 10.079 25.3579 15.2005ZM37.8526 22.8967C36.9886 24.2829 35.6492 25.2545 34.0558 25.6332C32.9975 25.8847 31.928 25.8248 30.9147 25.5255C31.1947 21.8408 32.5012 18.352 34.6488 15.4421C31.9058 17.8026 29.8714 20.9242 28.7699 24.3769C26.4561 22.4645 25.8222 19.1102 27.4449 16.4758C29.0222 13.9151 34.4632 11.2778 38.807 9.6801C39.3345 14.2783 39.4271 20.324 37.8526 22.8967Z" fill="#072A05"/>
<path d="M9.944 11.644V13.294H3.696V18.42H9.284V20.07H3.696V25.35H9.944V27H1.694V11.644H9.944ZM12.2253 20.95C12.2253 17.166 14.6673 14.746 18.0993 14.746C21.0913 14.746 23.0493 16.286 23.6653 18.816H21.5093C21.0913 17.364 19.8813 16.44 18.0993 16.44C15.8993 16.44 14.2713 18.002 14.2713 20.95C14.2713 23.942 15.8993 25.504 18.0993 25.504C19.8813 25.504 21.0693 24.646 21.5093 23.128H23.6653C23.0493 25.526 21.0913 27.198 18.0993 27.198C14.6673 27.198 12.2253 24.778 12.2253 20.95Z" fill="#072A05"/>
<path d="M43.7123 21.126V11.644H46.7923V21.148C46.7923 23.26 47.9363 24.36 49.8943 24.36C51.8743 24.36 53.0183 23.26 53.0183 21.148V11.644H56.1203V21.126C56.1203 25.174 53.2163 27.154 49.8503 27.154C46.4843 27.154 43.7123 25.174 43.7123 21.126ZM62.1761 16.572C62.9021 15.538 64.3101 14.614 66.2021 14.614C69.3261 14.614 71.7681 17.056 71.7681 20.862C71.7681 24.668 69.3261 27.198 66.2021 27.198C64.2881 27.198 62.9241 26.252 62.1761 25.262V32.808H59.0961V14.812H62.1761V16.572ZM68.6221 20.862C68.6221 18.552 67.0601 17.32 65.3881 17.32C63.7381 17.32 62.1761 18.596 62.1761 20.906C62.1761 23.216 63.7381 24.492 65.3881 24.492C67.0601 24.492 68.6221 23.172 68.6221 20.862ZM73.2143 20.862C73.2143 17.056 75.6783 14.614 78.7803 14.614C80.6943 14.614 82.0803 15.494 82.8063 16.55V14.812H85.9083V27.088C85.9083 30.388 83.8843 33.006 79.8803 33.006C76.4483 33.006 74.0503 31.29 73.7423 28.496H76.8003C77.1083 29.596 78.2523 30.322 79.7923 30.322C81.4863 30.322 82.8063 29.354 82.8063 27.088V25.196C82.0803 26.252 80.6943 27.198 78.7803 27.198C75.6783 27.198 73.2143 24.668 73.2143 20.862ZM82.8063 20.906C82.8063 18.596 81.2663 17.32 79.5723 17.32C77.9223 17.32 76.3603 18.552 76.3603 20.862C76.3603 23.172 77.9223 24.492 79.5723 24.492C81.2663 24.492 82.8063 23.216 82.8063 20.906ZM91.9964 20.928V27H88.9164V14.812H91.9964V16.704C92.7664 15.45 94.0424 14.636 95.7364 14.636V17.87H94.9224C93.0964 17.87 91.9964 18.574 91.9964 20.928ZM97.019 20.862C97.019 17.056 99.483 14.614 102.585 14.614C104.543 14.614 105.885 15.538 106.611 16.55V14.812H109.713V27H106.611V25.218C105.885 26.274 104.499 27.198 102.563 27.198C99.483 27.198 97.019 24.668 97.019 20.862ZM106.611 20.906C106.611 18.596 105.071 17.32 103.377 17.32C101.727 17.32 100.165 18.552 100.165 20.862C100.165 23.172 101.727 24.492 103.377 24.492C105.071 24.492 106.611 23.216 106.611 20.906ZM111.929 20.862C111.929 17.056 114.393 14.614 117.517 14.614C119.123 14.614 120.663 15.362 121.499 16.506V10.72H124.623V27H121.499V25.196C120.773 26.318 119.409 27.198 117.495 27.198C114.393 27.198 111.929 24.668 111.929 20.862ZM121.521 20.906C121.521 18.596 119.981 17.32 118.287 17.32C116.637 17.32 115.075 18.552 115.075 20.862C115.075 23.172 116.637 24.492 118.287 24.492C119.981 24.492 121.521 23.216 121.521 20.906ZM132.867 17.144C131.393 17.144 130.227 18.09 129.985 19.762H135.771C135.727 18.156 134.451 17.144 132.867 17.144ZM138.653 23.172C137.993 25.416 135.969 27.198 132.955 27.198C129.413 27.198 126.839 24.734 126.839 20.906C126.839 17.056 129.347 14.614 132.955 14.614C136.475 14.614 138.961 17.012 138.961 20.642C138.961 21.038 138.939 21.434 138.873 21.83H129.963C130.117 23.634 131.349 24.646 132.889 24.646C134.209 24.646 134.935 23.986 135.331 23.172H138.653Z" fill="#13750F"/>
</svg>
